<mxfile host="65bd71144e">
    <diagram id="76PC00XPe6100wojULCq" name="Page-1">
        <mxGraphModel dx="407" dy="1593" grid="1" gridSize="10" guides="1" tooltips="1" connect="1" arrows="1" fold="1" page="1" pageScale="1" pageWidth="850" pageHeight="1100" background="light-dark(#384851, #121212)" math="0" shadow="0">
            <root>
                <mxCell id="0"/>
                <mxCell id="1" parent="0"/>
                <mxCell id="2" value="" style="rounded=1;whiteSpace=wrap;html=1;rotation=90;strokeColor=light-dark(#303841,#303841);fillColor=light-dark(#1e1f2f, #ededed);" vertex="1" parent="1">
                    <mxGeometry x="104" y="57" width="447.5" height="297.5" as="geometry"/>
                </mxCell>
                <mxCell id="3" value="" style="ellipse;whiteSpace=wrap;html=1;fillColor=#D72323;" vertex="1" parent="1">
                    <mxGeometry x="212" y="215" width="35" height="35" as="geometry"/>
                </mxCell>
                <mxCell id="4" value="" style="ellipse;whiteSpace=wrap;html=1;fillColor=#D72323;" vertex="1" parent="1">
                    <mxGeometry x="212" y="265" width="35" height="35" as="geometry"/>
                </mxCell>
                <mxCell id="5" value="" style="ellipse;whiteSpace=wrap;html=1;fillColor=#D72323;" vertex="1" parent="1">
                    <mxGeometry x="212" y="317.5" width="35" height="35" as="geometry"/>
                </mxCell>
                <mxCell id="6" value="" style="ellipse;whiteSpace=wrap;html=1;fillColor=#D72323;" vertex="1" parent="1">
                    <mxGeometry x="288.25" y="215" width="35" height="35" as="geometry"/>
                </mxCell>
                <mxCell id="7" value="" style="ellipse;whiteSpace=wrap;html=1;fillColor=#D72323;" vertex="1" parent="1">
                    <mxGeometry x="288.25" y="265" width="35" height="35" as="geometry"/>
                </mxCell>
                <mxCell id="8" value="" style="ellipse;whiteSpace=wrap;html=1;fillColor=#D72323;" vertex="1" parent="1">
                    <mxGeometry x="288.25" y="317.5" width="35" height="35" as="geometry"/>
                </mxCell>
                <mxCell id="9" value="" style="ellipse;whiteSpace=wrap;html=1;fillColor=#D72323;" vertex="1" parent="1">
                    <mxGeometry x="362" y="215" width="35" height="35" as="geometry"/>
                </mxCell>
                <mxCell id="10" value="" style="ellipse;whiteSpace=wrap;html=1;fillColor=#D72323;" vertex="1" parent="1">
                    <mxGeometry x="362" y="265" width="35" height="35" as="geometry"/>
                </mxCell>
                <mxCell id="11" value="" style="ellipse;whiteSpace=wrap;html=1;fillColor=#D72323;" vertex="1" parent="1">
                    <mxGeometry x="362" y="317.5" width="35" height="35" as="geometry"/>
                </mxCell>
                <mxCell id="15" value="" style="rounded=1;whiteSpace=wrap;html=1;" vertex="1" parent="1">
                    <mxGeometry x="206.63" y="10" width="243.37" height="120" as="geometry"/>
                </mxCell>
                <mxCell id="19" value="" style="rounded=1;whiteSpace=wrap;html=1;" vertex="1" parent="1">
                    <mxGeometry x="415.5" y="315" width="40" height="40" as="geometry"/>
                </mxCell>
                <mxCell id="20" value="" style="rounded=1;whiteSpace=wrap;html=1;" vertex="1" parent="1">
                    <mxGeometry x="415.5" y="262.5" width="40" height="40" as="geometry"/>
                </mxCell>
                <mxCell id="22" value="" style="rounded=1;whiteSpace=wrap;html=1;arcSize=35;" vertex="1" parent="1">
                    <mxGeometry x="415.5" y="212.5" width="40" height="40" as="geometry"/>
                </mxCell>
                <mxCell id="24" value="" style="ellipse;whiteSpace=wrap;html=1;fillColor=#D72323;" vertex="1" parent="1">
                    <mxGeometry x="212" y="370" width="35" height="35" as="geometry"/>
                </mxCell>
                <mxCell id="25" value="" style="ellipse;whiteSpace=wrap;html=1;fillColor=#D72323;" vertex="1" parent="1">
                    <mxGeometry x="288.25" y="370" width="35" height="35" as="geometry"/>
                </mxCell>
                <mxCell id="26" value="" style="ellipse;whiteSpace=wrap;html=1;fillColor=#D72323;" vertex="1" parent="1">
                    <mxGeometry x="362" y="370" width="35" height="35" as="geometry"/>
                </mxCell>
                <mxCell id="27" value="" style="rounded=1;whiteSpace=wrap;html=1;" vertex="1" parent="1">
                    <mxGeometry x="415.5" y="367.5" width="40" height="40" as="geometry"/>
                </mxCell>
            </root>
        </mxGraphModel>
    </diagram>
</mxfile>